<svg width="210" height="224" viewBox="0 0 210 224" fill="none" xmlns="http://www.w3.org/2000/svg" role="img" aria-label="CALL-E">
	<rect width="210" height="224" fill="#F7F6F1"/>
	<path d="M104 23C57 19 27 32 21 73C16 105 17 147 39 167C56 183 83 184 118 183V200C118 208 126 211 132 206C169 179 190 148 189 104C188 54 160 28 104 23Z" fill="#F7F6F1" stroke="#2B2B2B" stroke-width="10" stroke-linecap="round" stroke-linejoin="round"/>
	<path d="M98 70C98 80 97 89 96 98" stroke="#2B2B2B" stroke-width="10" stroke-linecap="round"/>
	<path d="M129 72C129 82 128 91 127 100" stroke="#2B2B2B" stroke-width="10" stroke-linecap="round"/>
	<path d="M85 119C94 129 105 133 119 131" stroke="#2B2B2B" stroke-width="9" stroke-linecap="round"/>
</svg>
